<svg clip-rule="evenodd" fill-rule="evenodd" height="512" stroke-linejoin="round" stroke-miterlimit="2" viewBox="0 0 48 48" width="512" xmlns="http://www.w3.org/2000/svg" xmlns:xlink="http://www.w3.org/1999/xlink"><linearGradient id="_Linear1" gradientTransform="matrix(28 -29 29 28 1279.57 131.785)" gradientUnits="userSpaceOnUse" x1="0" x2="1" y1="0" y2="0"><stop offset="0" stop-color="#0056e0"/><stop offset=".01" stop-color="#0056e0"/><stop offset="1" stop-color="#00e5b8"/></linearGradient><g transform="translate(-159 -53)"><g transform="translate(-1109.57 -40.785)"><g id="ngicon"><path d="m1281.59 112.495s-2.05 2.055-4.35 4.356c-2.13 2.123-3.32 5.003-3.32 8.006 0 3.002 1.19 5.882 3.32 8.005.08.084.16.168.25.252 2.12 2.123 5 3.316 8 3.316 3.01 0 5.89-1.193 8.01-3.316 2.3-2.3 4.36-4.356 4.36-4.356.97-.975.97-2.56 0-3.535-.98-.976-2.56-.976-3.54 0 0 0-2.06 2.055-4.36 4.356-1.18 1.185-2.79 1.851-4.47 1.851-1.67 0-3.28-.666-4.47-1.851l-.25-.252c-1.18-1.186-1.85-2.794-1.85-4.47 0-1.677.67-3.285 1.85-4.471 2.3-2.3 4.36-4.356 4.36-4.356.97-.975.97-2.559 0-3.535-.98-.976-2.56-.976-3.54 0zm14.88-2.148-11.34 11.34c-.98.976-.98 2.56 0 3.536.97.975 2.56.975 3.53 0l11.34-11.341c.98-.976.98-2.56 0-3.535-.97-.976-2.56-.976-3.53 0zm7.04 12.753s2.07-2.069 4.38-4.38c2.13-2.123 3.32-5.003 3.32-8.006 0-3.002-1.19-5.882-3.32-8.005-.08-.084-.16-.168-.25-.252-2.12-2.124-5-3.316-8-3.316-3.01 0-5.89 1.192-8.01 3.316-2.3 2.299-4.35 4.354-4.35 4.354-.98.976-.98 2.56 0 3.536.97.975 2.56.975 3.53 0 0 0 2.06-2.055 4.36-4.355 1.18-1.185 2.79-1.851 4.47-1.851 1.67 0 3.28.666 4.47 1.851l.25.252c1.18 1.186 1.85 2.794 1.85 4.47 0 1.677-.67 3.285-1.85 4.471-2.31 2.311-4.38 4.379-4.38 4.379-.98.976-.98 2.56 0 3.536.97.975 2.56.975 3.53 0z" fill="url(#_Linear1)"/></g></g></g></svg>