<?xml version="1.0" encoding="UTF-8"?>
<svg id="svg" xmlns="http://www.w3.org/2000/svg" version="1.1" viewBox="0 0 400 400">
  <!-- Generator: Adobe Illustrator 29.0.0, SVG Export Plug-In . SVG Version: 2.1.0 Build 186)  -->
  <defs>
    <style>
      .st0 {
        fill: #fff;
        fill-rule: evenodd;
      }
    </style>
  </defs>
  <g id="svgg">
    <path id="path0" class="st0" d="M137.7,65.4c-5.8,2.3-25,128.7-34.7,228.2l-.9,9.6h-4c-32.9-.1-44.2-30-18.3-48.2,10-7,11.1-9.9,4.8-12.5-10.7-4.5-30.6,11-34.7,27-7.2,27.6,12,50.6,44.3,52.9,3.9.3,8.4.9,10.2,1.5,20.9,6.7,211.4,5.6,216.2-1.3,6.1-8.8-32.3-256.5-39.9-257.5-4.3-.6-14.3,13.4-25.2,35.2-2.6,5.3-4.8,9.6-4.9,9.7,0,0-4-.6-8.7-1.4-20.4-3.5-55.4-2.8-66.1,1.3-.8.3-2.4-2-5.4-7.2-14.1-25.1-26.8-39.5-32.6-37.2M172.5,159.2c9.6,6.8,3.7,22.4-8,21-15.1-1.7-13-24.2,2.1-23,2,.2,4.6,1,6,2M268.6,159.2c9.6,6.8,3.7,22.4-8,21-15.1-1.7-13-24.2,2.1-23,2,.2,4.6,1,6,2M214.1,194c2.2,2.8,5.5,3.9,8.8,3s4.7.3,2.4,1.9c-2.3,1.7-7.6,1.3-10.7-.8l-2.7-1.8-2.3,1.8c-3.6,2.9-12.1,2.4-12.1-.8s1.5-.5,3.4-.2c4,.6,6.9-.5,8.7-3.2,1.5-2.3,2.5-2.3,4.3,0"/>
  </g>
</svg>