<?xml version="1.0" encoding="UTF-8"?>
<svg id="svg" xmlns="http://www.w3.org/2000/svg" version="1.1" viewBox="0 0 400 400">
  <!-- Generator: Adobe Illustrator 29.0.0, SVG Export Plug-In . SVG Version: 2.1.0 Build 186)  -->
  <defs>
    <style>
      .st0 {
        fill: #6c9eea;
      }

      .st0, .st1 {
        fill-rule: evenodd;
      }

      .st1 {
        fill: #fff;
      }
    </style>
  </defs>
  <polygon class="st1" points="195.6 291.3 183.7 307.7 195.6 342 205.2 338.6 215.2 305 210.1 291.3 195.6 291.3"/>
  <polygon class="st1" points="199.8 56.1 163.4 89.7 142.1 144.5 142.1 187 138.7 196.6 116.8 240.5 116.8 250.1 172.2 243.3 189.8 264.5 218.3 257.6 227.5 248.1 285.5 254.2 258 191.8 255.3 132.2 235.4 88.3 199.8 56.1"/>
  <g id="svgg">
    <path id="path0" class="st0" d="M195.9,48.4c-40.4,24.6-65.1,79.2-61.9,137,.3,4.7.3,8.9.1,9.2-.2.3-1.6,1.9-3.2,3.6-8.2,8.8-14.4,19.7-17.7,31.3-2.8,9.8-5,33-3.2,33s2.4-.3,4.6-.8c14.8-2.9,32.3-6.3,38.9-7.6,4.3-.8,8.5-1.7,9.5-1.8l1.7-.3,1.7,3.4c11.7,24,54.6,24,66.7,0,1.7-3.3.7-3.2,10.5-1.3,4.3.9,10.2,2,13,2.6,26.9,5.2,32.4,6.3,32.9,6.1,1.4-.5.2-18.5-1.8-28.4-.4-1.9-.6-2.8-1.6-6.2-2.9-10.5-9.5-21.7-17.8-30.4l-2.9-3v-13.2c.5-35.4-6.3-64.3-21-89.8-10.9-19-28.1-36.7-44-45.2-.6-.3-1.5.1-4.5,1.9M204.6,68.6c21.6,14.4,39.8,45,45.7,76.6.3,1.4.6,3.4.8,4.4.4,2.1,1,6.5,1.6,12.2.6,5.5.6,24.2,0,29.5l-.5,4.3,4.2,4.4c11.5,12,18.3,28.5,18.3,44.6v1.9s-1.3-.3-1.3-.3c-.7-.1-2.9-.6-4.9-1-5.8-1.2-40.1-8-40.6-8s-1.1,1.3-1.9,2.9c-11.6,23.1-40.6,23.3-51.8.4-1.1-2.3-2.1-4.1-2.2-4.1-.2,0-32.5,6.4-43.7,8.6-3.7.7-3.5,1-2.9-4.5,1.8-17.4,7.4-29.8,18.5-41.1l4-4-.4-9.2c-2.4-51.3,15-93.7,48.4-117.7,4.2-3,3.9-3,8.6.2M195.8,117.2c-20.2,2.6-30.4,26.3-18.7,43.3,11.6,16.8,38.6,14.8,47.4-3.4,9.9-20.5-6.2-42.8-28.7-39.9M202.4,128.8c9.7,1.8,15.5,12.9,11.5,21.7-5.5,12.1-22.4,12.7-28.4,1.1-6-11.6,4.1-25.2,16.9-22.8M195.7,284.2c-5.7,1.4-11.2,6.1-14.3,12.2-6.4,12.7-2.1,29,14.3,54.3,3.8,5.8,3.4,5.8,7,1,7.9-10.7,15.2-24.9,17.3-33.7,1.1-4.8,1.3-5.8,1.3-8.6,0-15.8-12.7-28.4-25.5-25.2M204.1,298c5.5,3.5,7.5,11.9,4.8,19.9-1.9,5.6-8,17.7-8.9,17.7-1.9,0-9.8-18.5-10.3-23.8-.8-10.3,7.4-18.2,14.4-13.8"/>
    <path id="path1" class="st0" d="M204.9,49.2c38.7,24.1,61.2,73.2,60.6,132.2v13.2c-.1,0,2.8,3,2.8,3,6.6,6.9,11.2,14,15.1,22.9,1.7,4,1.9,4.6,3.5,10.3,1.8,6.7,3.1,17.6,3.2,26.1,0,4.2-.1,5.6-.5,5.7-.5.2-6-.9-32.9-6.1-2.9-.6-8.7-1.7-13-2.6-9.8-2-8.8-2.1-10.5,1.3-12,24.1-54.9,24.1-66.7,0l-1.7-3.4-1.7.3c-.9.1-5.2,1-9.5,1.8-6.6,1.3-24.2,4.7-38.9,7.6-2.2.4-4.2.8-4.6.8-1.8,0,.4-23.2,3.2-33,3.3-11.6,9.5-22.5,17.7-31.3,1.6-1.7,3-3.3,3.2-3.6.2-.3.1-4.4-.1-9.2-2.8-50.4,15.5-98.7,47.8-126.5,8.1-7,17.3-13.1,18.7-12.4.4.2,2.4,1.4,4.5,2.7M196,68.5c-33.4,24-50.8,66.4-48.4,117.7l.4,9.2-4,4c-11.1,11.3-16.7,23.7-18.5,41.1-.6,5.6-.8,5.3,2.9,4.5,11.2-2.2,43.5-8.6,43.7-8.6s1.1,1.8,2.2,4.1c11.3,22.9,40.3,22.7,51.8-.4.8-1.6,1.6-2.9,1.9-2.9.5,0,34.7,6.7,40.6,8,2,.4,4.2.9,4.9,1l1.3.3v-1.9c0-16.1-6.8-32.6-18.3-44.6l-4.2-4.4.5-4.3c.7-5.3.7-24,0-29.5-.6-5.7-1.2-10.1-1.6-12.2-.2-1-.6-3-.8-4.4-5.9-31.6-24.1-62.1-45.7-76.6-4.8-3.2-4.5-3.2-8.6-.2M206.6,117.8c25.2,6.6,28.5,40.8,5,51.7-18.7,8.6-39.3-4.5-39.3-24.9s16.8-31.4,34.3-26.8M195.6,129c-9.9,2.7-14.8,13.6-10.1,22.5,6,11.7,22.9,11,28.4-1.1,5.3-11.6-5.9-24.8-18.3-21.5M203.7,284.2c11.6,3,19.9,17.6,17,30.1-1.3,6-1.7,7.2-3.4,11.5-3.6,9.1-16,29.7-18,29.8-.5,0-5.5-7.4-8.9-13.3-12-20.7-14.8-34.6-9.1-45.9,4.8-9.4,13.9-14.4,22.4-12.2M196.4,297.4c-9.3,5.1-8.8,17.7,1.5,35.3,2.1,3.5,2,3.6,4.2-.4,8.7-15.3,10-24,4.9-31.4-2.5-3.6-7.5-5.2-10.7-3.5"/>
  </g>
</svg>