<?xml version="1.0" encoding="UTF-8"?>
<svg id="svg" xmlns="http://www.w3.org/2000/svg" version="1.1" viewBox="0 0 400 400">
  <!-- Generator: Adobe Illustrator 29.0.0, SVG Export Plug-In . SVG Version: 2.1.0 Build 186)  -->
  <defs>
    <style>
      .st0 {
        fill: #0080ff;
        fill-rule: evenodd;
      }
    </style>
  </defs>
  <g id="svgg">
    <path id="path0" class="st0" d="M250.1,75.8c-4.1,1.3-7.8,4.5-9.6,8.2l-1.1,2.2-.2,60.8c-.2,63.9-.2,64.6,1.4,67.9,6.6,12.9,25.5,10.8,29.2-3.4.8-2.9.8-121.5,0-124.3-2.4-8.7-11.7-14.1-19.8-11.4M195.5,99.2c-4.4,1.5-7.8,4.5-9.8,8.7l-1.1,2.3v179.6l1.3,2.6c5.9,12,22.4,12,28.3,0l1.3-2.6V110.2l-1.1-2.3c-3.4-7.3-11.7-11.1-18.9-8.7M305.4,114.6c-5.6,1.6-9.5,5.4-11.2,11-.8,2.7-.8,37,0,39.7,4.2,13.8,22.1,15.4,29.1,2.6l1.3-2.5v-40l-1.2-2.4c-3.4-6.8-11.1-10.4-18-8.5M142,177c-6.1,1.4-10.4,5.8-11.9,12-.6,2.7-.8,111.5-.2,120.3,1.2,17.8,23.6,21.5,30.2,5.1,1.2-2.9,1-124.6-.2-127.7-2.7-7.1-10.7-11.4-18-9.7M85.6,224.3c-3.8,1.3-7.3,4.6-9.1,8.5l-1.1,2.2v39.2l1.1,2.2c6.4,13.7,26.1,11.7,29.5-2.9.9-3.8.5-36.4-.4-39.3-2.7-8.2-11.9-12.8-20-10"/>
  </g>
</svg>