<?xml version="1.0" encoding="UTF-8"?>
<svg xmlns="http://www.w3.org/2000/svg" version="1.1" viewBox="0 0 400 400">
  <!-- Generator: Adobe Illustrator 29.0.0, SVG Export Plug-In . SVG Version: 2.1.0 Build 186)  -->
  <defs>
    <style>
      .st0 {
        fill: #fbfbfb;
      }

      .st0, .st1, .st2 {
        fill-rule: evenodd;
      }

      .st3 {
        fill: #0b78aa;
      }

      .st4 {
        fill: #1494d4;
      }

      .st1 {
        fill: #041d26;
      }

      .st5 {
        fill: #005172;
      }

      .st2 {
        display: none;
        fill: #209ccf;
      }

      .st6 {
        fill: #00648a;
      }
    </style>
  </defs>
  <g id="_图层_3" data-name="图层_3">
    <circle class="st4" cx="200" cy="200" r="194.8"/>
    <circle class="st3" cx="200" cy="200" r="169.9"/>
    <circle class="st6" cx="200" cy="200" r="144.9"/>
    <circle class="st5" cx="200" cy="200" r="117.9"/>
  </g>
  <g id="svg">
    <g id="svgg">
      <path id="path0" class="st0" d="M91.9,107.9c-1,.3-1.1,25.9,0,26.3.3.1,5.5.2,11.4.2,10.7,0,10.8,0,11.2.9.4.7.4,22.7.3,92.6-.1,50.4-.1,91.7,0,91.7.6,0,2.5-1.8,7.5-6.8,3.1-3.2,50-50.1,104.1-104.3,54.1-54.2,98.6-98.9,98.7-99.4l.2-.9-38,.3c-20.9.2-38.3.4-38.8.6-.5.2-20.4,19.7-44.3,43.5-23.9,23.8-43.7,43.2-44.1,43.2-.6,0-.7-3.6-.9-44-.1-24.2-.2-44-.3-44.1-.2-.2-66.3,0-67,.2"/>
      <path id="path3" class="st1" d="M159.9,126.7c-.3,1.9-.3,65.6,0,67.2l.2,1.2,5.7-5.7c3.1-3.1,6-6.2,6.5-6.9.8-1.2,1.5-52.4.8-55.3-.5-2-1.1-2.1-7.2-2.1h-5.7l-.2,1.5M309.5,127.1c-1.4.4-180.9,180.3-181.5,182-.4,1.1-.1,26.8.3,27.9.4.9.5.8,14.1-12.6,7.4-7.2,14.5-14.2,15.9-15.5,17-16,174.6-175,179.5-181.1.6-.8-25.7-1.5-28.4-.8M104.3,135.9l-1.1.7v8.1c0,9.6-.4,9,5.9,8.8h4.3v-18.1h-4c-3.2-.2-4.2,0-5.1.5"/>
      <path id="path4" class="st2" d="M91.3,107l-.9.7v13.3c0,15.7-.5,14.3,5.4,14.2,8,0,10.5-.6,3.2-.7-3.6,0-6.8-.2-7.1-.3-.6-.2-.6-1.7-.6-13.2v-12.9l.9-.2c.8-.2,66.6-.4,66.8-.2,0,0,.2,4.3.3,9.5l.2,9.4v-9.2c.1-6.9,0-9.4-.3-9.9-.8-1-66.4-1.5-67.8-.5M290.2,107.6c-11.4.1-25.6.3-31.4.3h-10.6c0,0-10.2,10.2-10.2,10.2-22.2,21.9-63.4,63.1-70.2,70.1-6.8,7-7.9,8-8.4,7-.1-.2-.2-.2,0,0,.3,1.4,4.4-2.5,44.8-42.7,23.9-23.8,43.8-43.3,44.3-43.5.5-.2,17.9-.4,38.8-.6l37.9-.3-.2,1c-.1.7-5.1,5.8-15.2,15.8-8.2,8.1-15,14.9-15,15,0,.2,3.1-2.9,7-6.7,3.9-3.8,7.2-7,7.4-7s2.4-2,4.7-4.4c2.4-2.4,4.7-4.5,5.1-4.6,1.2-.4,8.1-7.6,8.1-8.5,0-2,3.6-1.8-37-1.3M113.8,135c.5.5.6,4,.4,30.1-.5,73-.5,155.7-.2,155.9.9.6,2.8-.3,3.5-1.6.4-.7,2.5-3.2,4.7-5.5,2.2-2.3,4.2-4.4,4.4-4.8s22-22.4,48.5-48.9,48-48.2,47.9-48.2c-.2,0-81.9,81.6-100.9,100.9-4.9,5-6.9,6.7-7.5,6.7s0-41.3,0-91.7c.2-93,.2-93.5-1.2-93.5s-.1.3.2.6M284.4,150.2c-2.9,3-5.3,5.5-5.2,5.5,0,0,2.6-2.4,5.7-5.4,3-3,5.4-5.5,5.2-5.5-.2,0-2.7,2.4-5.7,5.4M267.2,167.4c-2.9,3-5.3,5.4-5.2,5.5,0,0,2.6-2.4,5.7-5.4,3-3,5.4-5.5,5.2-5.5-.2,0-2.7,2.4-5.7,5.4M250,184.6c-2.9,3-5.3,5.4-5.2,5.5,0,0,2.6-2.4,5.7-5.4,3-3,5.4-5.5,5.2-5.5-.2,0-2.7,2.4-5.7,5.4M234.4,200.2c-2.9,3-5.3,5.5-5.2,5.5,0,0,2.6-2.4,5.7-5.4,3-3,5.4-5.5,5.2-5.5-.2,0-2.7,2.4-5.7,5.4"/>
    </g>
  </g>
</svg>